<mxfile host="app.diagrams.net" modified="2022-11-30T00:32:16.778Z" agent="5.0 (Windows NT 10.0; Win64; x64) AppleWebKit/537.36 (KHTML, like Gecko) Chrome/107.0.0.0 Safari/537.36" etag="FZPSxQEqQ-EspLxLTwcS" version="20.6.0" type="github">
  <diagram id="R2lEEEUBdFMjLlhIrx00" name="Page-1">
    <mxGraphModel dx="2512" dy="754" grid="1" gridSize="10" guides="1" tooltips="1" connect="1" arrows="1" fold="1" page="1" pageScale="1" pageWidth="850" pageHeight="1100" math="0" shadow="0" extFonts="Permanent Marker^https://fonts.googleapis.com/css?family=Permanent+Marker">
      <root>
        <mxCell id="0" />
        <mxCell id="1" parent="0" />
        <mxCell id="KYqQ4QEwSn9y70eBzoIo-3" value="user_id" style="ellipse;whiteSpace=wrap;html=1;align=center;fontStyle=4;" parent="1" vertex="1">
          <mxGeometry x="70" y="70" width="100" height="40" as="geometry" />
        </mxCell>
        <mxCell id="KYqQ4QEwSn9y70eBzoIo-5" value="User" style="whiteSpace=wrap;html=1;align=center;" parent="1" vertex="1">
          <mxGeometry x="70" y="160" width="100" height="40" as="geometry" />
        </mxCell>
        <mxCell id="KYqQ4QEwSn9y70eBzoIo-6" value="password" style="ellipse;whiteSpace=wrap;html=1;align=center;" parent="1" vertex="1">
          <mxGeometry x="-100" y="150" width="100" height="40" as="geometry" />
        </mxCell>
        <mxCell id="KYqQ4QEwSn9y70eBzoIo-7" value="nickname" style="ellipse;whiteSpace=wrap;html=1;align=center;" parent="1" vertex="1">
          <mxGeometry x="-35" y="90" width="100" height="40" as="geometry" />
        </mxCell>
        <mxCell id="KYqQ4QEwSn9y70eBzoIo-8" value="Coupon" style="whiteSpace=wrap;html=1;align=center;" parent="1" vertex="1">
          <mxGeometry x="120" y="370" width="100" height="40" as="geometry" />
        </mxCell>
        <mxCell id="KYqQ4QEwSn9y70eBzoIo-12" value="" style="endArrow=none;html=1;rounded=0;entryX=0.25;entryY=0;entryDx=0;entryDy=0;exitX=0.58;exitY=1.05;exitDx=0;exitDy=0;exitPerimeter=0;" parent="1" source="KYqQ4QEwSn9y70eBzoIo-7" target="KYqQ4QEwSn9y70eBzoIo-5" edge="1">
          <mxGeometry relative="1" as="geometry">
            <mxPoint x="250" y="370" as="sourcePoint" />
            <mxPoint x="410" y="370" as="targetPoint" />
          </mxGeometry>
        </mxCell>
        <mxCell id="KYqQ4QEwSn9y70eBzoIo-13" value="" style="endArrow=none;html=1;rounded=0;exitX=0.5;exitY=0;exitDx=0;exitDy=0;" parent="1" source="KYqQ4QEwSn9y70eBzoIo-5" target="KYqQ4QEwSn9y70eBzoIo-3" edge="1">
          <mxGeometry relative="1" as="geometry">
            <mxPoint x="380" y="300" as="sourcePoint" />
            <mxPoint x="550" y="300" as="targetPoint" />
          </mxGeometry>
        </mxCell>
        <mxCell id="KYqQ4QEwSn9y70eBzoIo-14" value="" style="endArrow=none;html=1;rounded=0;exitX=0;exitY=0.25;exitDx=0;exitDy=0;" parent="1" source="KYqQ4QEwSn9y70eBzoIo-5" target="KYqQ4QEwSn9y70eBzoIo-6" edge="1">
          <mxGeometry relative="1" as="geometry">
            <mxPoint x="240" y="320" as="sourcePoint" />
            <mxPoint x="400" y="320" as="targetPoint" />
          </mxGeometry>
        </mxCell>
        <mxCell id="KYqQ4QEwSn9y70eBzoIo-19" value="" style="shape=link;html=1;rounded=0;exitX=0;exitY=0.5;exitDx=0;exitDy=0;entryX=1;entryY=0.5;entryDx=0;entryDy=0;" parent="1" source="KYqQ4QEwSn9y70eBzoIo-129" target="KYqQ4QEwSn9y70eBzoIo-47" edge="1">
          <mxGeometry relative="1" as="geometry">
            <mxPoint x="790" y="670" as="sourcePoint" />
            <mxPoint x="670" y="610" as="targetPoint" />
          </mxGeometry>
        </mxCell>
        <mxCell id="KYqQ4QEwSn9y70eBzoIo-20" value="1" style="resizable=0;html=1;align=right;verticalAlign=bottom;" parent="KYqQ4QEwSn9y70eBzoIo-19" connectable="0" vertex="1">
          <mxGeometry x="1" relative="1" as="geometry" />
        </mxCell>
        <mxCell id="KYqQ4QEwSn9y70eBzoIo-21" value="Has" style="shape=rhombus;perimeter=rhombusPerimeter;whiteSpace=wrap;html=1;align=center;" parent="1" vertex="1">
          <mxGeometry x="150" y="270" width="120" height="60" as="geometry" />
        </mxCell>
        <mxCell id="KYqQ4QEwSn9y70eBzoIo-26" value="" style="endArrow=none;html=1;rounded=0;exitX=0.75;exitY=1;exitDx=0;exitDy=0;" parent="1" source="KYqQ4QEwSn9y70eBzoIo-5" target="KYqQ4QEwSn9y70eBzoIo-21" edge="1">
          <mxGeometry relative="1" as="geometry">
            <mxPoint x="290" y="240" as="sourcePoint" />
            <mxPoint x="450" y="240" as="targetPoint" />
          </mxGeometry>
        </mxCell>
        <mxCell id="KYqQ4QEwSn9y70eBzoIo-27" value="N" style="resizable=0;html=1;align=right;verticalAlign=bottom;" parent="KYqQ4QEwSn9y70eBzoIo-26" connectable="0" vertex="1">
          <mxGeometry x="1" relative="1" as="geometry" />
        </mxCell>
        <mxCell id="KYqQ4QEwSn9y70eBzoIo-31" value="" style="endArrow=none;html=1;rounded=0;entryX=0.5;entryY=0;entryDx=0;entryDy=0;" parent="1" source="KYqQ4QEwSn9y70eBzoIo-21" target="KYqQ4QEwSn9y70eBzoIo-8" edge="1">
          <mxGeometry relative="1" as="geometry">
            <mxPoint x="560" y="280" as="sourcePoint" />
            <mxPoint x="720" y="280" as="targetPoint" />
          </mxGeometry>
        </mxCell>
        <mxCell id="KYqQ4QEwSn9y70eBzoIo-32" value="N" style="resizable=0;html=1;align=right;verticalAlign=bottom;" parent="KYqQ4QEwSn9y70eBzoIo-31" connectable="0" vertex="1">
          <mxGeometry x="1" relative="1" as="geometry" />
        </mxCell>
        <mxCell id="KYqQ4QEwSn9y70eBzoIo-33" value="Takes" style="shape=rhombus;perimeter=rhombusPerimeter;whiteSpace=wrap;html=1;align=center;" parent="1" vertex="1">
          <mxGeometry x="800" y="170" width="120" height="60" as="geometry" />
        </mxCell>
        <mxCell id="KYqQ4QEwSn9y70eBzoIo-34" value="" style="shape=link;html=1;rounded=0;exitX=0.5;exitY=0;exitDx=0;exitDy=0;" parent="1" source="KYqQ4QEwSn9y70eBzoIo-129" target="KYqQ4QEwSn9y70eBzoIo-33" edge="1">
          <mxGeometry relative="1" as="geometry">
            <mxPoint x="820" y="650" as="sourcePoint" />
            <mxPoint x="630" y="460" as="targetPoint" />
          </mxGeometry>
        </mxCell>
        <mxCell id="KYqQ4QEwSn9y70eBzoIo-35" value="N" style="resizable=0;html=1;align=right;verticalAlign=bottom;" parent="KYqQ4QEwSn9y70eBzoIo-34" connectable="0" vertex="1">
          <mxGeometry x="1" relative="1" as="geometry" />
        </mxCell>
        <mxCell id="KYqQ4QEwSn9y70eBzoIo-36" value="" style="endArrow=none;html=1;rounded=0;entryX=0.333;entryY=0.2;entryDx=0;entryDy=0;entryPerimeter=0;exitX=1;exitY=0.5;exitDx=0;exitDy=0;" parent="1" source="KYqQ4QEwSn9y70eBzoIo-5" target="KYqQ4QEwSn9y70eBzoIo-33" edge="1">
          <mxGeometry relative="1" as="geometry">
            <mxPoint x="260" y="230" as="sourcePoint" />
            <mxPoint x="420" y="230" as="targetPoint" />
          </mxGeometry>
        </mxCell>
        <mxCell id="KYqQ4QEwSn9y70eBzoIo-37" value="N" style="resizable=0;html=1;align=right;verticalAlign=bottom;" parent="KYqQ4QEwSn9y70eBzoIo-36" connectable="0" vertex="1">
          <mxGeometry x="1" relative="1" as="geometry" />
        </mxCell>
        <mxCell id="KYqQ4QEwSn9y70eBzoIo-44" value="Lecture" style="shape=ext;margin=3;double=1;whiteSpace=wrap;html=1;align=center;" parent="1" vertex="1">
          <mxGeometry x="510" y="890" width="100" height="40" as="geometry" />
        </mxCell>
        <mxCell id="KYqQ4QEwSn9y70eBzoIo-45" value="" style="shape=link;html=1;rounded=0;exitX=0.5;exitY=0;exitDx=0;exitDy=0;" parent="1" source="KYqQ4QEwSn9y70eBzoIo-44" target="KYqQ4QEwSn9y70eBzoIo-47" edge="1">
          <mxGeometry relative="1" as="geometry">
            <mxPoint x="450" y="797.5" as="sourcePoint" />
            <mxPoint x="500" y="700" as="targetPoint" />
          </mxGeometry>
        </mxCell>
        <mxCell id="KYqQ4QEwSn9y70eBzoIo-46" value="N" style="resizable=0;html=1;align=right;verticalAlign=bottom;" parent="KYqQ4QEwSn9y70eBzoIo-45" connectable="0" vertex="1">
          <mxGeometry x="1" relative="1" as="geometry">
            <mxPoint x="-15" y="2" as="offset" />
          </mxGeometry>
        </mxCell>
        <mxCell id="KYqQ4QEwSn9y70eBzoIo-47" value="Includes" style="shape=rhombus;double=1;perimeter=rhombusPerimeter;whiteSpace=wrap;html=1;align=center;" parent="1" vertex="1">
          <mxGeometry x="500" y="770" width="120" height="60" as="geometry" />
        </mxCell>
        <mxCell id="KYqQ4QEwSn9y70eBzoIo-48" value="coupon_id" style="ellipse;whiteSpace=wrap;html=1;align=center;fontStyle=4;" parent="1" vertex="1">
          <mxGeometry x="320" y="330" width="100" height="40" as="geometry" />
        </mxCell>
        <mxCell id="KYqQ4QEwSn9y70eBzoIo-49" value="expire_date" style="ellipse;whiteSpace=wrap;html=1;align=center;" parent="1" vertex="1">
          <mxGeometry x="325" y="390" width="100" height="40" as="geometry" />
        </mxCell>
        <mxCell id="KYqQ4QEwSn9y70eBzoIo-50" value="discount" style="ellipse;whiteSpace=wrap;html=1;align=center;" parent="1" vertex="1">
          <mxGeometry x="290" y="450" width="100" height="40" as="geometry" />
        </mxCell>
        <mxCell id="KYqQ4QEwSn9y70eBzoIo-51" value="" style="endArrow=none;html=1;rounded=0;entryX=0.246;entryY=0.907;entryDx=0;entryDy=0;entryPerimeter=0;" parent="1" source="KYqQ4QEwSn9y70eBzoIo-8" target="KYqQ4QEwSn9y70eBzoIo-48" edge="1">
          <mxGeometry relative="1" as="geometry">
            <mxPoint x="790" y="150" as="sourcePoint" />
            <mxPoint x="950" y="150" as="targetPoint" />
          </mxGeometry>
        </mxCell>
        <mxCell id="KYqQ4QEwSn9y70eBzoIo-52" value="" style="endArrow=none;html=1;rounded=0;exitX=1;exitY=0.5;exitDx=0;exitDy=0;entryX=0;entryY=0.5;entryDx=0;entryDy=0;" parent="1" source="KYqQ4QEwSn9y70eBzoIo-8" target="KYqQ4QEwSn9y70eBzoIo-49" edge="1">
          <mxGeometry relative="1" as="geometry">
            <mxPoint x="810" y="270" as="sourcePoint" />
            <mxPoint x="970" y="270" as="targetPoint" />
          </mxGeometry>
        </mxCell>
        <mxCell id="KYqQ4QEwSn9y70eBzoIo-53" value="" style="endArrow=none;html=1;rounded=0;exitX=1;exitY=0.75;exitDx=0;exitDy=0;entryX=0.09;entryY=0.275;entryDx=0;entryDy=0;entryPerimeter=0;" parent="1" source="KYqQ4QEwSn9y70eBzoIo-8" target="KYqQ4QEwSn9y70eBzoIo-50" edge="1">
          <mxGeometry relative="1" as="geometry">
            <mxPoint x="780" y="290" as="sourcePoint" />
            <mxPoint x="940" y="290" as="targetPoint" />
          </mxGeometry>
        </mxCell>
        <mxCell id="KYqQ4QEwSn9y70eBzoIo-54" value="Discount" style="shape=rhombus;perimeter=rhombusPerimeter;whiteSpace=wrap;html=1;align=center;" parent="1" vertex="1">
          <mxGeometry x="120" y="470" width="120" height="60" as="geometry" />
        </mxCell>
        <mxCell id="KYqQ4QEwSn9y70eBzoIo-61" value="" style="endArrow=none;html=1;rounded=0;entryX=0.5;entryY=0;entryDx=0;entryDy=0;exitX=0.57;exitY=1.086;exitDx=0;exitDy=0;exitPerimeter=0;" parent="1" source="KYqQ4QEwSn9y70eBzoIo-8" target="KYqQ4QEwSn9y70eBzoIo-54" edge="1">
          <mxGeometry relative="1" as="geometry">
            <mxPoint x="770" y="340" as="sourcePoint" />
            <mxPoint x="930" y="340" as="targetPoint" />
          </mxGeometry>
        </mxCell>
        <mxCell id="KYqQ4QEwSn9y70eBzoIo-62" value="N" style="resizable=0;html=1;align=right;verticalAlign=bottom;" parent="KYqQ4QEwSn9y70eBzoIo-61" connectable="0" vertex="1">
          <mxGeometry x="1" relative="1" as="geometry" />
        </mxCell>
        <mxCell id="KYqQ4QEwSn9y70eBzoIo-63" value="Cart" style="shape=ext;margin=3;double=1;whiteSpace=wrap;html=1;align=center;" parent="1" vertex="1">
          <mxGeometry x="-10" y="380" width="100" height="40" as="geometry" />
        </mxCell>
        <mxCell id="KYqQ4QEwSn9y70eBzoIo-70" value="Orders" style="shape=rhombus;double=1;perimeter=rhombusPerimeter;whiteSpace=wrap;html=1;align=center;" parent="1" vertex="1">
          <mxGeometry x="-20" y="270" width="120" height="60" as="geometry" />
        </mxCell>
        <mxCell id="KYqQ4QEwSn9y70eBzoIo-75" value="" style="shape=link;html=1;rounded=0;" parent="1" source="KYqQ4QEwSn9y70eBzoIo-63" target="KYqQ4QEwSn9y70eBzoIo-70" edge="1">
          <mxGeometry relative="1" as="geometry">
            <mxPoint x="240" y="340" as="sourcePoint" />
            <mxPoint x="400" y="340" as="targetPoint" />
          </mxGeometry>
        </mxCell>
        <mxCell id="KYqQ4QEwSn9y70eBzoIo-76" value="1" style="resizable=0;html=1;align=right;verticalAlign=bottom;" parent="KYqQ4QEwSn9y70eBzoIo-75" connectable="0" vertex="1">
          <mxGeometry x="1" relative="1" as="geometry">
            <mxPoint x="-17" y="12" as="offset" />
          </mxGeometry>
        </mxCell>
        <mxCell id="KYqQ4QEwSn9y70eBzoIo-82" value="" style="shape=link;html=1;rounded=0;entryX=0.565;entryY=0.083;entryDx=0;entryDy=0;entryPerimeter=0;" parent="1" source="KYqQ4QEwSn9y70eBzoIo-5" target="KYqQ4QEwSn9y70eBzoIo-70" edge="1">
          <mxGeometry relative="1" as="geometry">
            <mxPoint x="152.5" y="420" as="sourcePoint" />
            <mxPoint x="170" y="330" as="targetPoint" />
          </mxGeometry>
        </mxCell>
        <mxCell id="KYqQ4QEwSn9y70eBzoIo-83" value="1" style="resizable=0;html=1;align=right;verticalAlign=bottom;" parent="KYqQ4QEwSn9y70eBzoIo-82" connectable="0" vertex="1">
          <mxGeometry x="1" relative="1" as="geometry">
            <mxPoint x="-8" y="-5" as="offset" />
          </mxGeometry>
        </mxCell>
        <mxCell id="KYqQ4QEwSn9y70eBzoIo-88" value="" style="shape=link;html=1;rounded=0;exitX=0.5;exitY=1;exitDx=0;exitDy=0;entryX=0.5;entryY=0;entryDx=0;entryDy=0;" parent="1" source="KYqQ4QEwSn9y70eBzoIo-63" target="KYqQ4QEwSn9y70eBzoIo-177" edge="1">
          <mxGeometry relative="1" as="geometry">
            <mxPoint x="130" y="572.5" as="sourcePoint" />
            <mxPoint x="192.22222222222217" y="521.3888888888891" as="targetPoint" />
          </mxGeometry>
        </mxCell>
        <mxCell id="KYqQ4QEwSn9y70eBzoIo-89" value="N" style="resizable=0;html=1;align=right;verticalAlign=bottom;" parent="KYqQ4QEwSn9y70eBzoIo-88" connectable="0" vertex="1">
          <mxGeometry x="1" relative="1" as="geometry">
            <mxPoint x="12" y="-3" as="offset" />
          </mxGeometry>
        </mxCell>
        <mxCell id="KYqQ4QEwSn9y70eBzoIo-90" value="Comment" style="shape=ext;margin=3;double=1;whiteSpace=wrap;html=1;align=center;" parent="1" vertex="1">
          <mxGeometry x="630" y="330" width="100" height="40" as="geometry" />
        </mxCell>
        <mxCell id="KYqQ4QEwSn9y70eBzoIo-94" value="" style="endArrow=none;html=1;rounded=0;entryX=0.399;entryY=0.931;entryDx=0;entryDy=0;entryPerimeter=0;exitX=0.637;exitY=-0.01;exitDx=0;exitDy=0;exitPerimeter=0;" parent="1" source="KYqQ4QEwSn9y70eBzoIo-90" target="KYqQ4QEwSn9y70eBzoIo-33" edge="1">
          <mxGeometry relative="1" as="geometry">
            <mxPoint x="520" y="440" as="sourcePoint" />
            <mxPoint x="666.96" y="820" as="targetPoint" />
          </mxGeometry>
        </mxCell>
        <mxCell id="KYqQ4QEwSn9y70eBzoIo-95" value="N" style="resizable=0;html=1;align=right;verticalAlign=bottom;" parent="KYqQ4QEwSn9y70eBzoIo-94" connectable="0" vertex="1">
          <mxGeometry x="1" relative="1" as="geometry" />
        </mxCell>
        <mxCell id="KYqQ4QEwSn9y70eBzoIo-97" value="discounted_total_cost" style="ellipse;whiteSpace=wrap;html=1;align=center;dashed=1;" parent="1" vertex="1">
          <mxGeometry x="-230" y="460" width="130" height="40" as="geometry" />
        </mxCell>
        <mxCell id="KYqQ4QEwSn9y70eBzoIo-98" value="" style="endArrow=none;html=1;rounded=0;entryX=0.4;entryY=1;entryDx=0;entryDy=0;entryPerimeter=0;exitX=1;exitY=0;exitDx=0;exitDy=0;" parent="1" source="KYqQ4QEwSn9y70eBzoIo-97" target="KYqQ4QEwSn9y70eBzoIo-63" edge="1">
          <mxGeometry relative="1" as="geometry">
            <mxPoint x="170" y="582.5" as="sourcePoint" />
            <mxPoint x="330" y="582.5" as="targetPoint" />
          </mxGeometry>
        </mxCell>
        <mxCell id="KYqQ4QEwSn9y70eBzoIo-99" value="discount" style="ellipse;whiteSpace=wrap;html=1;align=center;" parent="1" vertex="1">
          <mxGeometry x="-165" y="250" width="100" height="40" as="geometry" />
        </mxCell>
        <mxCell id="KYqQ4QEwSn9y70eBzoIo-100" value="" style="endArrow=none;html=1;rounded=0;entryX=0.587;entryY=1.014;entryDx=0;entryDy=0;entryPerimeter=0;" parent="1" source="KYqQ4QEwSn9y70eBzoIo-63" target="KYqQ4QEwSn9y70eBzoIo-99" edge="1">
          <mxGeometry relative="1" as="geometry">
            <mxPoint x="170" y="582.5" as="sourcePoint" />
            <mxPoint x="330" y="582.5" as="targetPoint" />
          </mxGeometry>
        </mxCell>
        <mxCell id="KYqQ4QEwSn9y70eBzoIo-101" value="total_cost" style="ellipse;whiteSpace=wrap;html=1;align=center;" parent="1" vertex="1">
          <mxGeometry x="-210" y="390" width="100" height="40" as="geometry" />
        </mxCell>
        <mxCell id="KYqQ4QEwSn9y70eBzoIo-102" value="" style="endArrow=none;html=1;rounded=0;exitX=1;exitY=0.5;exitDx=0;exitDy=0;entryX=0;entryY=0.75;entryDx=0;entryDy=0;" parent="1" source="KYqQ4QEwSn9y70eBzoIo-101" target="KYqQ4QEwSn9y70eBzoIo-63" edge="1">
          <mxGeometry relative="1" as="geometry">
            <mxPoint x="170" y="582.5" as="sourcePoint" />
            <mxPoint x="330" y="582.5" as="targetPoint" />
          </mxGeometry>
        </mxCell>
        <mxCell id="KYqQ4QEwSn9y70eBzoIo-110" value="Category" style="whiteSpace=wrap;html=1;align=center;" parent="1" vertex="1">
          <mxGeometry x="1000" y="420" width="100" height="40" as="geometry" />
        </mxCell>
        <mxCell id="KYqQ4QEwSn9y70eBzoIo-116" value="name" style="ellipse;whiteSpace=wrap;html=1;align=center;fontStyle=4;" parent="1" vertex="1">
          <mxGeometry x="1180" y="420" width="100" height="40" as="geometry" />
        </mxCell>
        <mxCell id="KYqQ4QEwSn9y70eBzoIo-117" value="" style="endArrow=none;html=1;rounded=0;exitX=1;exitY=0.5;exitDx=0;exitDy=0;entryX=0;entryY=0.5;entryDx=0;entryDy=0;" parent="1" source="KYqQ4QEwSn9y70eBzoIo-110" target="KYqQ4QEwSn9y70eBzoIo-116" edge="1">
          <mxGeometry relative="1" as="geometry">
            <mxPoint x="970" y="385" as="sourcePoint" />
            <mxPoint x="1200" y="430" as="targetPoint" />
          </mxGeometry>
        </mxCell>
        <mxCell id="KYqQ4QEwSn9y70eBzoIo-118" value="Falls_into" style="shape=rhombus;perimeter=rhombusPerimeter;whiteSpace=wrap;html=1;align=center;" parent="1" vertex="1">
          <mxGeometry x="910" y="500" width="120" height="60" as="geometry" />
        </mxCell>
        <mxCell id="KYqQ4QEwSn9y70eBzoIo-119" value="" style="shape=link;html=1;rounded=0;entryX=0.34;entryY=0.849;entryDx=0;entryDy=0;entryPerimeter=0;exitX=0.75;exitY=0;exitDx=0;exitDy=0;" parent="1" source="KYqQ4QEwSn9y70eBzoIo-129" target="KYqQ4QEwSn9y70eBzoIo-118" edge="1">
          <mxGeometry relative="1" as="geometry">
            <mxPoint x="850" y="650" as="sourcePoint" />
            <mxPoint x="1058.8000000000002" y="415.60000000000014" as="targetPoint" />
          </mxGeometry>
        </mxCell>
        <mxCell id="KYqQ4QEwSn9y70eBzoIo-120" value="N" style="resizable=0;html=1;align=right;verticalAlign=bottom;" parent="KYqQ4QEwSn9y70eBzoIo-119" connectable="0" vertex="1">
          <mxGeometry x="1" relative="1" as="geometry" />
        </mxCell>
        <mxCell id="KYqQ4QEwSn9y70eBzoIo-121" value="" style="shape=link;html=1;rounded=0;exitX=0.5;exitY=1;exitDx=0;exitDy=0;" parent="1" source="KYqQ4QEwSn9y70eBzoIo-110" target="KYqQ4QEwSn9y70eBzoIo-118" edge="1">
          <mxGeometry relative="1" as="geometry">
            <mxPoint x="1105" y="340" as="sourcePoint" />
            <mxPoint x="1078.7199999999998" y="405.81999999999994" as="targetPoint" />
          </mxGeometry>
        </mxCell>
        <mxCell id="KYqQ4QEwSn9y70eBzoIo-122" value="N" style="resizable=0;html=1;align=right;verticalAlign=bottom;" parent="KYqQ4QEwSn9y70eBzoIo-121" connectable="0" vertex="1">
          <mxGeometry x="1" relative="1" as="geometry" />
        </mxCell>
        <mxCell id="KYqQ4QEwSn9y70eBzoIo-127" value="Instructor" style="whiteSpace=wrap;html=1;align=center;" parent="1" vertex="1">
          <mxGeometry x="1175" y="600" width="100" height="40" as="geometry" />
        </mxCell>
        <mxCell id="KYqQ4QEwSn9y70eBzoIo-128" value="Offers" style="shape=rhombus;perimeter=rhombusPerimeter;whiteSpace=wrap;html=1;align=center;" parent="1" vertex="1">
          <mxGeometry x="990" y="600" width="120" height="60" as="geometry" />
        </mxCell>
        <mxCell id="KYqQ4QEwSn9y70eBzoIo-129" value="Curriculum" style="shape=ext;margin=3;double=1;whiteSpace=wrap;html=1;align=center;" parent="1" vertex="1">
          <mxGeometry x="810" y="610" width="100" height="40" as="geometry" />
        </mxCell>
        <mxCell id="KYqQ4QEwSn9y70eBzoIo-130" value="" style="endArrow=none;html=1;rounded=0;exitX=0;exitY=0.75;exitDx=0;exitDy=0;" parent="1" source="KYqQ4QEwSn9y70eBzoIo-127" target="KYqQ4QEwSn9y70eBzoIo-128" edge="1">
          <mxGeometry relative="1" as="geometry">
            <mxPoint x="780" y="620" as="sourcePoint" />
            <mxPoint x="940" y="620" as="targetPoint" />
          </mxGeometry>
        </mxCell>
        <mxCell id="KYqQ4QEwSn9y70eBzoIo-131" value="1" style="resizable=0;html=1;align=right;verticalAlign=bottom;" parent="KYqQ4QEwSn9y70eBzoIo-130" connectable="0" vertex="1">
          <mxGeometry x="1" relative="1" as="geometry" />
        </mxCell>
        <mxCell id="KYqQ4QEwSn9y70eBzoIo-132" value="" style="shape=link;html=1;rounded=0;exitX=1;exitY=0.5;exitDx=0;exitDy=0;" parent="1" source="KYqQ4QEwSn9y70eBzoIo-129" target="KYqQ4QEwSn9y70eBzoIo-128" edge="1">
          <mxGeometry relative="1" as="geometry">
            <mxPoint x="780" y="620" as="sourcePoint" />
            <mxPoint x="940" y="620" as="targetPoint" />
          </mxGeometry>
        </mxCell>
        <mxCell id="KYqQ4QEwSn9y70eBzoIo-133" value="N" style="resizable=0;html=1;align=right;verticalAlign=bottom;" parent="KYqQ4QEwSn9y70eBzoIo-132" connectable="0" vertex="1">
          <mxGeometry x="1" relative="1" as="geometry" />
        </mxCell>
        <mxCell id="KYqQ4QEwSn9y70eBzoIo-134" value="introduction" style="ellipse;whiteSpace=wrap;html=1;align=center;" parent="1" vertex="1">
          <mxGeometry x="1330" y="660" width="100" height="40" as="geometry" />
        </mxCell>
        <mxCell id="KYqQ4QEwSn9y70eBzoIo-135" value="" style="endArrow=none;html=1;rounded=0;exitX=1;exitY=0.75;exitDx=0;exitDy=0;" parent="1" source="KYqQ4QEwSn9y70eBzoIo-127" target="KYqQ4QEwSn9y70eBzoIo-134" edge="1">
          <mxGeometry relative="1" as="geometry">
            <mxPoint x="1280" y="630" as="sourcePoint" />
            <mxPoint x="1170" y="620" as="targetPoint" />
          </mxGeometry>
        </mxCell>
        <mxCell id="KYqQ4QEwSn9y70eBzoIo-136" value="instructor_name" style="ellipse;whiteSpace=wrap;html=1;align=center;fontStyle=4;" parent="1" vertex="1">
          <mxGeometry x="1330" y="600" width="100" height="40" as="geometry" />
        </mxCell>
        <mxCell id="KYqQ4QEwSn9y70eBzoIo-137" value="" style="endArrow=none;html=1;rounded=0;" parent="1" source="KYqQ4QEwSn9y70eBzoIo-127" target="KYqQ4QEwSn9y70eBzoIo-136" edge="1">
          <mxGeometry relative="1" as="geometry">
            <mxPoint x="1010" y="620" as="sourcePoint" />
            <mxPoint x="1170" y="620" as="targetPoint" />
          </mxGeometry>
        </mxCell>
        <mxCell id="KYqQ4QEwSn9y70eBzoIo-138" value="&lt;span style=&quot;border-bottom: 1px dotted&quot;&gt;curriculum_name&lt;/span&gt;" style="ellipse;whiteSpace=wrap;html=1;align=center;" parent="1" vertex="1">
          <mxGeometry x="720" y="780" width="100" height="40" as="geometry" />
        </mxCell>
        <mxCell id="KYqQ4QEwSn9y70eBzoIo-139" value="" style="endArrow=none;html=1;rounded=0;exitX=0.5;exitY=0;exitDx=0;exitDy=0;entryX=0.17;entryY=1.014;entryDx=0;entryDy=0;entryPerimeter=0;" parent="1" source="KYqQ4QEwSn9y70eBzoIo-138" target="KYqQ4QEwSn9y70eBzoIo-129" edge="1">
          <mxGeometry relative="1" as="geometry">
            <mxPoint x="800" y="620" as="sourcePoint" />
            <mxPoint x="960" y="620" as="targetPoint" />
          </mxGeometry>
        </mxCell>
        <mxCell id="KYqQ4QEwSn9y70eBzoIo-140" value="price" style="ellipse;whiteSpace=wrap;html=1;align=center;" parent="1" vertex="1">
          <mxGeometry x="890" y="780" width="100" height="40" as="geometry" />
        </mxCell>
        <mxCell id="KYqQ4QEwSn9y70eBzoIo-141" value="" style="endArrow=none;html=1;rounded=0;exitX=0.75;exitY=1;exitDx=0;exitDy=0;" parent="1" source="KYqQ4QEwSn9y70eBzoIo-129" target="KYqQ4QEwSn9y70eBzoIo-140" edge="1">
          <mxGeometry relative="1" as="geometry">
            <mxPoint x="800" y="620" as="sourcePoint" />
            <mxPoint x="960" y="620" as="targetPoint" />
          </mxGeometry>
        </mxCell>
        <mxCell id="KYqQ4QEwSn9y70eBzoIo-145" value="progress_rate" style="ellipse;whiteSpace=wrap;html=1;align=center;" parent="1" vertex="1">
          <mxGeometry x="960" y="100" width="100" height="40" as="geometry" />
        </mxCell>
        <mxCell id="KYqQ4QEwSn9y70eBzoIo-146" value="" style="endArrow=none;html=1;rounded=0;entryX=0.718;entryY=0.167;entryDx=0;entryDy=0;entryPerimeter=0;exitX=0.378;exitY=1.021;exitDx=0;exitDy=0;exitPerimeter=0;" parent="1" source="KYqQ4QEwSn9y70eBzoIo-145" target="KYqQ4QEwSn9y70eBzoIo-33" edge="1">
          <mxGeometry relative="1" as="geometry">
            <mxPoint x="720" y="390" as="sourcePoint" />
            <mxPoint x="880" y="390" as="targetPoint" />
          </mxGeometry>
        </mxCell>
        <mxCell id="KYqQ4QEwSn9y70eBzoIo-147" value="last_studied_date" style="ellipse;whiteSpace=wrap;html=1;align=center;" parent="1" vertex="1">
          <mxGeometry x="840" y="60" width="100" height="40" as="geometry" />
        </mxCell>
        <mxCell id="KYqQ4QEwSn9y70eBzoIo-148" value="" style="endArrow=none;html=1;rounded=0;" parent="1" source="KYqQ4QEwSn9y70eBzoIo-147" target="KYqQ4QEwSn9y70eBzoIo-33" edge="1">
          <mxGeometry relative="1" as="geometry">
            <mxPoint x="720" y="390" as="sourcePoint" />
            <mxPoint x="880" y="390" as="targetPoint" />
          </mxGeometry>
        </mxCell>
        <mxCell id="KYqQ4QEwSn9y70eBzoIo-149" value="purchase_date" style="ellipse;whiteSpace=wrap;html=1;align=center;" parent="1" vertex="1">
          <mxGeometry x="730" y="70" width="100" height="40" as="geometry" />
        </mxCell>
        <mxCell id="KYqQ4QEwSn9y70eBzoIo-150" value="" style="endArrow=none;html=1;rounded=0;exitX=0.653;exitY=0.979;exitDx=0;exitDy=0;exitPerimeter=0;entryX=0.425;entryY=0.083;entryDx=0;entryDy=0;entryPerimeter=0;" parent="1" source="KYqQ4QEwSn9y70eBzoIo-149" target="KYqQ4QEwSn9y70eBzoIo-33" edge="1">
          <mxGeometry relative="1" as="geometry">
            <mxPoint x="720" y="390" as="sourcePoint" />
            <mxPoint x="750" y="400" as="targetPoint" />
          </mxGeometry>
        </mxCell>
        <mxCell id="KYqQ4QEwSn9y70eBzoIo-152" value="" style="endArrow=none;html=1;rounded=0;entryX=0;entryY=0.25;entryDx=0;entryDy=0;exitX=1;exitY=1;exitDx=0;exitDy=0;" parent="1" source="KYqQ4QEwSn9y70eBzoIo-153" target="KYqQ4QEwSn9y70eBzoIo-90" edge="1">
          <mxGeometry relative="1" as="geometry">
            <mxPoint x="610" y="330" as="sourcePoint" />
            <mxPoint x="430" y="630" as="targetPoint" />
          </mxGeometry>
        </mxCell>
        <mxCell id="KYqQ4QEwSn9y70eBzoIo-153" value="&lt;span style=&quot;border-bottom: 1px dotted&quot;&gt;comment_id&lt;/span&gt;" style="ellipse;whiteSpace=wrap;html=1;align=center;" parent="1" vertex="1">
          <mxGeometry x="490" y="260" width="100" height="40" as="geometry" />
        </mxCell>
        <mxCell id="KYqQ4QEwSn9y70eBzoIo-154" value="rate" style="ellipse;whiteSpace=wrap;html=1;align=center;" parent="1" vertex="1">
          <mxGeometry x="510" y="410" width="100" height="40" as="geometry" />
        </mxCell>
        <mxCell id="KYqQ4QEwSn9y70eBzoIo-155" value="" style="endArrow=none;html=1;rounded=0;" parent="1" source="KYqQ4QEwSn9y70eBzoIo-90" target="KYqQ4QEwSn9y70eBzoIo-154" edge="1">
          <mxGeometry relative="1" as="geometry">
            <mxPoint x="450" y="550" as="sourcePoint" />
            <mxPoint x="610" y="550" as="targetPoint" />
          </mxGeometry>
        </mxCell>
        <mxCell id="KYqQ4QEwSn9y70eBzoIo-156" value="&lt;span style=&quot;border-bottom: 1px dotted&quot;&gt;lecture_name&lt;/span&gt;" style="ellipse;whiteSpace=wrap;html=1;align=center;" parent="1" vertex="1">
          <mxGeometry x="440" y="980" width="100" height="40" as="geometry" />
        </mxCell>
        <mxCell id="KYqQ4QEwSn9y70eBzoIo-157" value="" style="endArrow=none;html=1;rounded=0;exitX=0.5;exitY=0;exitDx=0;exitDy=0;" parent="1" source="KYqQ4QEwSn9y70eBzoIo-156" target="KYqQ4QEwSn9y70eBzoIo-44" edge="1">
          <mxGeometry relative="1" as="geometry">
            <mxPoint x="270" y="550" as="sourcePoint" />
            <mxPoint x="430" y="550" as="targetPoint" />
          </mxGeometry>
        </mxCell>
        <mxCell id="KYqQ4QEwSn9y70eBzoIo-158" value="length" style="ellipse;whiteSpace=wrap;html=1;align=center;" parent="1" vertex="1">
          <mxGeometry x="580" y="980" width="100" height="40" as="geometry" />
        </mxCell>
        <mxCell id="KYqQ4QEwSn9y70eBzoIo-159" value="" style="endArrow=none;html=1;rounded=0;exitX=0.75;exitY=1;exitDx=0;exitDy=0;" parent="1" source="KYqQ4QEwSn9y70eBzoIo-44" target="KYqQ4QEwSn9y70eBzoIo-158" edge="1">
          <mxGeometry relative="1" as="geometry">
            <mxPoint x="270" y="550" as="sourcePoint" />
            <mxPoint x="430" y="550" as="targetPoint" />
          </mxGeometry>
        </mxCell>
        <mxCell id="KYqQ4QEwSn9y70eBzoIo-160" value="is_complete" style="ellipse;whiteSpace=wrap;html=1;align=center;dashed=1;" parent="1" vertex="1">
          <mxGeometry x="970" y="210" width="100" height="40" as="geometry" />
        </mxCell>
        <mxCell id="KYqQ4QEwSn9y70eBzoIo-163" value="" style="endArrow=none;html=1;rounded=0;exitX=0.913;exitY=0.611;exitDx=0;exitDy=0;exitPerimeter=0;" parent="1" source="KYqQ4QEwSn9y70eBzoIo-33" target="KYqQ4QEwSn9y70eBzoIo-160" edge="1">
          <mxGeometry relative="1" as="geometry">
            <mxPoint x="780" y="400" as="sourcePoint" />
            <mxPoint x="940" y="400" as="targetPoint" />
          </mxGeometry>
        </mxCell>
        <mxCell id="KYqQ4QEwSn9y70eBzoIo-164" value="content" style="ellipse;whiteSpace=wrap;html=1;align=center;" parent="1" vertex="1">
          <mxGeometry x="590" y="240" width="100" height="40" as="geometry" />
        </mxCell>
        <mxCell id="KYqQ4QEwSn9y70eBzoIo-165" value="" style="endArrow=none;html=1;rounded=0;exitX=0.595;exitY=1;exitDx=0;exitDy=0;exitPerimeter=0;" parent="1" source="KYqQ4QEwSn9y70eBzoIo-164" edge="1">
          <mxGeometry relative="1" as="geometry">
            <mxPoint x="410" y="380" as="sourcePoint" />
            <mxPoint x="670" y="330" as="targetPoint" />
          </mxGeometry>
        </mxCell>
        <mxCell id="KYqQ4QEwSn9y70eBzoIo-166" value="date" style="ellipse;whiteSpace=wrap;html=1;align=center;" parent="1" vertex="1">
          <mxGeometry x="490" y="340" width="100" height="40" as="geometry" />
        </mxCell>
        <mxCell id="KYqQ4QEwSn9y70eBzoIo-167" value="" style="endArrow=none;html=1;rounded=0;entryX=0;entryY=0.75;entryDx=0;entryDy=0;" parent="1" source="KYqQ4QEwSn9y70eBzoIo-166" target="KYqQ4QEwSn9y70eBzoIo-90" edge="1">
          <mxGeometry relative="1" as="geometry">
            <mxPoint x="410" y="380" as="sourcePoint" />
            <mxPoint x="630" y="350" as="targetPoint" />
          </mxGeometry>
        </mxCell>
        <mxCell id="KYqQ4QEwSn9y70eBzoIo-168" value="checked_for_purchase" style="ellipse;whiteSpace=wrap;html=1;align=center;" parent="1" vertex="1">
          <mxGeometry x="-120" y="723" width="130" height="40" as="geometry" />
        </mxCell>
        <mxCell id="KYqQ4QEwSn9y70eBzoIo-169" value="" style="endArrow=none;html=1;rounded=0;exitX=0.715;exitY=0.075;exitDx=0;exitDy=0;exitPerimeter=0;entryX=0.293;entryY=0.818;entryDx=0;entryDy=0;entryPerimeter=0;" parent="1" source="KYqQ4QEwSn9y70eBzoIo-168" target="KYqQ4QEwSn9y70eBzoIo-177" edge="1">
          <mxGeometry relative="1" as="geometry">
            <mxPoint x="220" y="483" as="sourcePoint" />
            <mxPoint x="147.1422280933507" y="683" as="targetPoint" />
          </mxGeometry>
        </mxCell>
        <mxCell id="KYqQ4QEwSn9y70eBzoIo-172" value="&lt;span style=&quot;border-bottom: 1px dotted&quot;&gt;cart_id&lt;/span&gt;" style="ellipse;whiteSpace=wrap;html=1;align=center;" parent="1" vertex="1">
          <mxGeometry x="-210" y="330" width="100" height="40" as="geometry" />
        </mxCell>
        <mxCell id="KYqQ4QEwSn9y70eBzoIo-173" value="" style="endArrow=none;html=1;rounded=0;exitX=0;exitY=0.25;exitDx=0;exitDy=0;" parent="1" source="KYqQ4QEwSn9y70eBzoIo-63" target="KYqQ4QEwSn9y70eBzoIo-172" edge="1">
          <mxGeometry relative="1" as="geometry">
            <mxPoint x="90" y="480" as="sourcePoint" />
            <mxPoint x="250" y="480" as="targetPoint" />
          </mxGeometry>
        </mxCell>
        <mxCell id="KYqQ4QEwSn9y70eBzoIo-177" value="Put_Into_Cart" style="shape=rhombus;perimeter=rhombusPerimeter;whiteSpace=wrap;html=1;align=center;" parent="1" vertex="1">
          <mxGeometry x="-20" y="593" width="120" height="60" as="geometry" />
        </mxCell>
        <mxCell id="KYqQ4QEwSn9y70eBzoIo-179" value="" style="endArrow=none;html=1;rounded=0;entryX=1;entryY=0.5;entryDx=0;entryDy=0;exitX=0;exitY=0.25;exitDx=0;exitDy=0;" parent="1" source="KYqQ4QEwSn9y70eBzoIo-129" target="KYqQ4QEwSn9y70eBzoIo-177" edge="1">
          <mxGeometry relative="1" as="geometry">
            <mxPoint x="570" y="690" as="sourcePoint" />
            <mxPoint x="730" y="690" as="targetPoint" />
          </mxGeometry>
        </mxCell>
        <mxCell id="KYqQ4QEwSn9y70eBzoIo-180" value="N" style="resizable=0;html=1;align=right;verticalAlign=bottom;" parent="KYqQ4QEwSn9y70eBzoIo-179" connectable="0" vertex="1">
          <mxGeometry x="1" relative="1" as="geometry" />
        </mxCell>
        <mxCell id="KYqQ4QEwSn9y70eBzoIo-184" value="" style="endArrow=none;html=1;rounded=0;exitX=0.5;exitY=1;exitDx=0;exitDy=0;entryX=1;entryY=0;entryDx=0;entryDy=0;" parent="1" source="KYqQ4QEwSn9y70eBzoIo-54" target="KYqQ4QEwSn9y70eBzoIo-177" edge="1">
          <mxGeometry relative="1" as="geometry">
            <mxPoint x="180" y="460" as="sourcePoint" />
            <mxPoint x="340" y="460" as="targetPoint" />
          </mxGeometry>
        </mxCell>
        <mxCell id="KYqQ4QEwSn9y70eBzoIo-185" value="N" style="resizable=0;html=1;align=right;verticalAlign=bottom;" parent="KYqQ4QEwSn9y70eBzoIo-184" connectable="0" vertex="1">
          <mxGeometry x="1" relative="1" as="geometry" />
        </mxCell>
        <mxCell id="KYqQ4QEwSn9y70eBzoIo-186" value="coupon_used" style="ellipse;whiteSpace=wrap;html=1;align=center;" parent="1" vertex="1">
          <mxGeometry x="80" y="723" width="100" height="40" as="geometry" />
        </mxCell>
        <mxCell id="KYqQ4QEwSn9y70eBzoIo-189" value="" style="endArrow=none;html=1;rounded=0;entryX=0.646;entryY=0.854;entryDx=0;entryDy=0;entryPerimeter=0;" parent="1" source="KYqQ4QEwSn9y70eBzoIo-186" target="KYqQ4QEwSn9y70eBzoIo-177" edge="1">
          <mxGeometry relative="1" as="geometry">
            <mxPoint x="450" y="473" as="sourcePoint" />
            <mxPoint x="610" y="473" as="targetPoint" />
          </mxGeometry>
        </mxCell>
        <mxCell id="KYqQ4QEwSn9y70eBzoIo-191" value="Contains" style="shape=rhombus;perimeter=rhombusPerimeter;whiteSpace=wrap;html=1;align=center;" parent="1" vertex="1">
          <mxGeometry x="620" y="460" width="120" height="60" as="geometry" />
        </mxCell>
        <mxCell id="KYqQ4QEwSn9y70eBzoIo-192" value="" style="shape=link;html=1;rounded=0;entryX=0.717;entryY=0.867;entryDx=0;entryDy=0;entryPerimeter=0;" parent="1" source="KYqQ4QEwSn9y70eBzoIo-129" target="KYqQ4QEwSn9y70eBzoIo-191" edge="1">
          <mxGeometry relative="1" as="geometry">
            <mxPoint x="580" y="500" as="sourcePoint" />
            <mxPoint x="740" y="500" as="targetPoint" />
          </mxGeometry>
        </mxCell>
        <mxCell id="KYqQ4QEwSn9y70eBzoIo-193" value="1" style="resizable=0;html=1;align=right;verticalAlign=bottom;" parent="KYqQ4QEwSn9y70eBzoIo-192" connectable="0" vertex="1">
          <mxGeometry x="1" relative="1" as="geometry" />
        </mxCell>
        <mxCell id="KYqQ4QEwSn9y70eBzoIo-194" value="" style="endArrow=none;html=1;rounded=0;entryX=0.5;entryY=0;entryDx=0;entryDy=0;exitX=0.5;exitY=1;exitDx=0;exitDy=0;" parent="1" source="KYqQ4QEwSn9y70eBzoIo-90" target="KYqQ4QEwSn9y70eBzoIo-191" edge="1">
          <mxGeometry relative="1" as="geometry">
            <mxPoint x="530" y="490" as="sourcePoint" />
            <mxPoint x="740" y="500" as="targetPoint" />
          </mxGeometry>
        </mxCell>
        <mxCell id="KYqQ4QEwSn9y70eBzoIo-195" value="N" style="resizable=0;html=1;align=right;verticalAlign=bottom;" parent="KYqQ4QEwSn9y70eBzoIo-194" connectable="0" vertex="1">
          <mxGeometry x="1" relative="1" as="geometry" />
        </mxCell>
      </root>
    </mxGraphModel>
  </diagram>
</mxfile>
